<svg width="48" height="48" viewBox="0 0 48 48" fill="none" xmlns="http://www.w3.org/2000/svg">
<g clip-path="url(#clip0_2_28)">
<path d="M18.9656 8.71875C18.4313 8.83125 17.6063 9.23438 17.1562 9.60938C16.7625 9.9375 16.1719 10.6031 16.1063 10.7906C16.0781 10.8656 15.8438 10.8469 15.3 10.725C14.6344 10.5844 14.4469 10.575 13.9125 10.6781C12.8719 10.8656 12.3188 11.2125 10.6875 12.7031C9.76875 13.5375 7.63125 15.15 3.15938 18.3656L0 20.6438V21.1875C0 21.6656 0.028125 21.7594 0.24375 21.9281C0.39375 22.05 0.628125 22.125 0.84375 22.125C1.14375 22.125 1.50938 21.9 3.4875 20.5031C8.65313 16.8281 10.7063 15.2906 12.2531 13.9125C13.7719 12.5531 14.3063 12.3 15.0844 12.5719L15.375 12.675V18.6094V24.5344L14.5688 24.9C13.65 25.3125 13.4063 25.5563 13.4063 26.0813C13.4063 26.5688 13.8094 27 14.2594 27C14.4375 27 15.1781 26.7188 16.0688 26.3063C16.9031 25.9219 18.9094 25.0031 20.5312 24.2531C22.1531 23.5031 24.0188 22.6406 24.675 22.3219C26.7188 21.3375 28.0031 21.0188 28.7063 21.3094C29.4469 21.6188 29.9063 22.7156 29.7188 23.7094C29.3625 25.5844 27.3375 27.1125 22.8844 28.875L21.6656 29.3625L19.7625 31.2563C17.775 33.2344 17.1938 33.6844 16.0312 34.1813C15.0469 34.6125 14.0906 34.7813 12.1406 34.8844C4.69688 35.2781 0.721875 35.5406 0.478125 35.6625C0.20625 35.8125 0 36.1594 0 36.4969C0 36.825 0.346875 37.3031 0.628125 37.3781C0.76875 37.4063 2.93438 37.3219 5.4375 37.1813C7.94063 37.0406 10.7625 36.8813 11.7188 36.8344C14.0531 36.7219 15.4969 36.45 16.9781 35.8594C17.0906 35.8219 17.1469 35.8688 17.1844 36.0188C17.2688 36.3281 17.8688 37.0031 18.225 37.1906C18.9656 37.575 19.9875 37.6875 20.925 37.4906C21.4313 37.3781 22.4438 36.9281 22.5469 36.75C22.6406 36.6 22.7438 36.6375 22.8563 36.8906C23.0625 37.35 23.7188 37.9406 24.3094 38.2125C24.8438 38.4656 24.975 38.4844 25.9688 38.4844C26.9531 38.4844 27.0938 38.4656 27.5625 38.2313C27.8438 38.0906 28.3313 37.7719 28.6313 37.5188L29.1844 37.0688L29.6625 37.2375C30.7313 37.6031 32.1656 37.35 33.1594 36.6188C34.2844 35.7938 35.025 34.3875 35.3531 32.4094L35.475 31.6875H39.8156C44.7469 31.6875 45.0563 31.6594 46.0031 31.0406C46.9875 30.4031 47.6625 29.4469 47.8969 28.3313C48.0375 27.6375 48.0375 12.8625 47.8969 12.1688C47.6438 10.9875 46.7344 9.76875 45.675 9.20625C44.5406 8.60625 45.1594 8.625 31.6406 8.63438C24.8906 8.64375 19.1813 8.68125 18.9656 8.71875ZM44.4844 10.8188C45 11.0531 45.6938 11.7563 45.8906 12.2156C45.9563 12.3844 46.0406 12.7125 46.0688 12.9563L46.1344 13.4063H31.6781H17.2219L17.2875 13.0125C17.3813 12.4219 17.6531 11.8781 18.1125 11.3813C18.9 10.5281 17.625 10.5938 31.6406 10.5938H44.0156L44.4844 10.8188ZM46.0781 22.5938C46.0781 28.4438 46.0875 28.3219 45.4781 28.9969C44.7844 29.7656 45.5531 29.7188 35.1094 29.7188H25.8281L26.85 29.1938C29.5875 27.7969 31.05 26.3063 31.5469 24.4031C32.0344 22.5469 31.2 20.4281 29.7 19.6969C28.1906 18.9656 26.5594 19.275 23.0625 20.9531C21.3094 21.7969 17.3438 23.625 17.2781 23.625C17.2219 23.625 17.25 17.3719 17.3156 17.3156C17.3438 17.2781 23.8313 17.2594 31.725 17.2688L46.0781 17.2969V22.5938ZM22.6781 32.1281C22.6781 32.3813 22.6219 32.9438 22.5563 33.4031C22.4438 34.2 22.4344 34.2375 21.975 34.6969C21.3469 35.3344 20.6438 35.6719 19.95 35.6625C19.3125 35.6531 18.975 35.4656 18.8906 35.0625C18.8344 34.8188 18.8719 34.7438 19.0969 34.575C19.2375 34.4625 19.9688 33.7688 20.7188 33.0281C21.9 31.8563 22.1156 31.6875 22.3875 31.6875C22.6875 31.6875 22.6875 31.6875 22.6781 32.1281ZM28.275 31.8469C28.1531 32.2969 28.0125 34.1438 28.0688 34.7063L28.125 35.3344L27.675 35.7938C26.8969 36.6 26.1938 36.8156 25.2938 36.5438C24.8156 36.4031 24.5063 36.0188 24.3844 35.4188C24.3 35.0156 24.3188 34.6688 24.4688 33.6094C24.5719 32.8875 24.6563 32.1563 24.6563 31.9875V31.6875H26.4938C28.1906 31.6875 28.3219 31.6969 28.275 31.8469ZM33.4688 31.9031C33.4688 32.2875 33.1125 33.525 32.8688 34.0219C32.3344 35.0625 31.5844 35.5875 30.7406 35.5125C30.4781 35.4844 30.2156 35.4094 30.1594 35.3531C30 35.1938 29.9625 33.7031 30.0938 32.6156L30.2063 31.6875H31.8375H33.4688V31.9031Z" fill="#050505"/>
</g>
<defs>
<clipPath id="clip0_2_28">
<rect width="48" height="48" fill="white"/>
</clipPath>
</defs>
</svg>
