<svg width="48" height="48" viewBox="0 0 48 48" fill="none" xmlns="http://www.w3.org/2000/svg">
<path d="M16.4719 2.58749C13.5656 3.11249 11.1844 5.50312 10.6781 8.39999C10.5094 9.39374 10.6125 10.9594 10.9125 11.8594C11.0531 12.2719 11.2031 12.6469 11.2406 12.6844C11.3063 12.75 12.7406 12.1125 12.9281 11.9437C12.9375 11.9344 12.8625 11.6531 12.7594 11.3344C11.9438 8.99062 13.0406 6.18749 15.2344 5.04374C18.6094 3.28124 22.5469 5.34374 23.0063 9.11249L23.0719 9.65624H24.0094H24.9375V9.28124C24.9375 8.53124 24.6469 7.45312 24.1875 6.50624C23.1844 4.43437 21.2438 2.97187 18.975 2.57812C18 2.40937 17.4469 2.40937 16.4719 2.58749Z" fill="#000"/>
<path d="M34.7438 6.94688C32.9719 7.5375 31.4906 8.44688 30.2813 9.7125C29.6438 10.3781 28.6969 11.6531 28.575 12C28.5563 12.0656 28.3219 12.0563 27.8906 11.9625C25.0594 11.3719 22.0406 11.3156 19.1719 11.8125C15.3563 12.4781 11.7094 14.2781 9.27188 16.6875C8.16563 17.775 7.4625 18.7781 6.7875 20.2031C6.55313 20.6906 6.34688 21.0938 6.31875 21.0938C6.3 21.0938 6.0375 20.9719 5.7375 20.8219C4.58438 20.2313 3.95625 19.3969 3.87188 18.3375C3.77813 17.2125 4.21875 16.3125 5.12813 15.7875C5.60625 15.4969 5.71875 15.3281 5.71875 14.8406C5.71875 14.3625 5.33438 13.9688 4.86563 13.95C4.18125 13.9312 2.925 14.8875 2.45625 15.8062C1.9875 16.7344 1.80938 18.2719 2.0625 19.2375C2.44688 20.6625 3.4875 21.8438 5.04375 22.6125C5.7 22.9406 5.8125 23.0344 5.775 23.1938C5.55 24.1406 5.48438 24.9 5.49375 26.7656C5.49375 29.025 5.55 29.3719 6.17813 31.0031C6.9 32.8594 8.775 35.3062 10.5 36.6188C10.7531 36.8156 10.9688 37.0406 10.9688 37.125C10.9688 37.2 10.7531 37.8375 10.4906 38.5312C9.975 39.9094 9.8625 40.5281 10.0219 41.1188C10.1719 41.6906 10.6406 42.3281 11.1375 42.6375C11.6813 42.9938 14.7938 44.1469 15.3844 44.2219C15.9281 44.2875 16.7156 44.0625 17.2219 43.6969C17.7188 43.3313 17.9906 42.8625 18.4688 41.5313C18.675 40.9406 18.8625 40.4438 18.8813 40.425C18.9 40.4063 19.3969 40.4906 19.9781 40.6125C20.9156 40.8 21.3281 40.8281 23.3906 40.8281C24.6844 40.8281 26.1844 40.7906 26.7375 40.7438C27.6844 40.6688 27.75 40.6781 27.8063 40.8375C28.5094 42.8531 28.9219 43.5094 29.7563 43.95C30.1406 44.1469 30.3563 44.1938 30.8906 44.1938C31.4625 44.1938 31.7531 44.1188 33.225 43.5656C35.1188 42.8625 35.5875 42.6188 35.9906 42.1219C36.6563 41.3156 36.7219 40.3969 36.2344 39.0375C36.0469 38.5312 35.9344 38.0906 35.9719 38.0625C36.0188 38.025 36.4031 37.7625 36.8438 37.4813C38.7469 36.2531 40.125 34.7063 41.3063 32.4375L41.5781 31.9219L42.8531 31.8656C43.8281 31.8187 44.2313 31.7625 44.55 31.6125C45.0844 31.3781 45.6281 30.8438 45.8813 30.2906C46.0688 29.8781 46.0781 29.7188 46.0781 27.0938C46.0781 23.9438 46.0406 23.6813 45.4406 23.0063C44.8219 22.3031 44.5031 22.1906 42.9938 22.125L41.6906 22.0781L41.4656 21.2438C40.6969 18.3375 38.7 15.8625 36.0563 14.5219L35.2313 14.1094L35.2875 13.2938C35.3625 12.15 35.6344 10.9969 36.2438 9.19688C36.8156 7.49062 36.825 7.28437 36.3563 6.89062C36.0094 6.59063 35.775 6.6 34.7438 6.94688ZM33.8813 10.425C33.4781 11.85 33.2813 13.0688 33.2813 14.1562C33.2813 15.0188 33.3 15.0844 33.525 15.3188C33.6656 15.45 33.8156 15.5625 33.8719 15.5625C34.0781 15.5625 35.775 16.4344 36.3188 16.8188C37.0219 17.3156 37.9781 18.3188 38.475 19.0688C38.9438 19.7812 39.4031 20.8688 39.6094 21.7594C39.8625 22.875 39.9281 23.0156 40.275 23.3719C40.7719 23.8594 41.2688 24 42.5625 24C43.5375 24 43.6875 24.0188 43.9125 24.1969L44.1563 24.3844V26.9625C44.1563 30.1312 44.2688 29.9062 42.7219 29.9062C40.8375 29.9062 40.2844 30.2156 39.4594 31.7625C38.4844 33.6 37.3969 34.8188 35.8875 35.7937C35.4094 36.1031 34.875 36.4781 34.6969 36.6281C34.35 36.9094 33.9375 37.6875 33.9375 38.0625C33.9375 38.1937 34.1156 38.8125 34.3313 39.4406L34.7344 40.5844L34.5469 40.8375C34.3969 41.025 33.9563 41.2313 32.6344 41.7375C31.1063 42.3094 30.8813 42.375 30.6469 42.2813C30.375 42.1594 30.225 41.8781 29.6625 40.3688C29.4656 39.8438 29.2406 39.4125 29.0438 39.2156C28.5375 38.6906 28.2938 38.6625 26.025 38.8594C23.5406 39.0656 21.9469 39.0188 20.1563 38.6719C18.7688 38.4 18.3188 38.4188 17.85 38.7375C17.4469 39.0094 17.3813 39.1313 16.7344 40.7344C15.975 42.6375 16.125 42.5813 13.9875 41.7656C13.0688 41.4188 12.2344 41.0813 12.1219 41.0063C11.8031 40.8 11.85 40.4063 12.3188 39.1594C12.8625 37.725 12.9656 37.2469 12.8344 36.6656C12.7125 36.0938 12.4969 35.8031 11.6719 35.0906C8.46563 32.325 7.15313 29.5875 7.35 26.0625C7.575 22.0031 8.99063 19.0781 11.7375 17.025C14.0719 15.2812 16.8 14.1375 19.8656 13.6219C21.375 13.3687 25.4156 13.3969 26.9063 13.6688C27.4969 13.7812 28.2656 13.9219 28.6031 13.9781C29.4188 14.1281 29.55 14.0438 30.1313 13.0125C31.0031 11.4562 31.95 10.5094 33.375 9.76875C33.7969 9.55312 34.1531 9.375 34.1625 9.375C34.1719 9.375 34.05 9.85313 33.8813 10.425Z" fill="#000"/>
<path d="M34.6687 22.2188C33.1219 22.4813 32.6719 24.5719 33.9563 25.5C35.1656 26.3813 36.8437 25.4719 36.8437 23.9344C36.8437 23.5219 36.4219 22.7625 36.0469 22.5094C35.6531 22.2469 35.1469 22.1438 34.6687 22.2188Z" fill="#000"/>
</svg>
