<svg width="48" height="48" viewBox="0 0 48 48" fill="none" xmlns="http://www.w3.org/2000/svg">
<path d="M22.5125 4.22813C20.7875 4.4625 19.1281 5.0625 18.0406 5.84063C15.0594 7.95938 14.1312 11.6906 15.2375 17.1375C15.4531 18.1781 15.4812 18.45 15.3875 18.5625C14.8531 19.2 14.6844 20.1563 14.9094 21.2719C15.1812 22.6125 15.6969 23.5125 16.3156 23.7188C16.6156 23.8125 16.625 23.85 16.8687 24.825C17.1594 26.0063 17.8812 27.5344 18.3875 28.0594L18.7344 28.425L18.6969 30.075C18.65 31.9594 18.6125 32.0813 17.9 32.775C17.3281 33.3094 16.1656 33.9 13.4656 35.0156C10.1562 36.375 8.9375 37.0688 7.625 38.3344C6.04062 39.8625 5.23437 41.6813 5.06562 44.0531L5 45H24.2844H43.5594L43.5125 44.6438C43.4937 44.4563 43.4469 43.9688 43.4187 43.5656C43.2687 41.5969 42.2844 39.5625 40.8219 38.2125C39.5469 37.0219 38.15 36.2531 34.7937 34.875C32.5625 33.9563 31.6906 33.525 31.0062 33.0188C30.0125 32.2688 29.8906 31.9219 29.8812 29.6438L29.8719 28.3969L30.1812 28.0875C30.7625 27.5063 31.5406 25.6781 31.8781 24.0938C31.9156 23.925 32.0562 23.7938 32.3281 23.6531C32.8531 23.4 33.275 22.7063 33.5375 21.6563C33.8187 20.55 33.7625 19.6219 33.3687 18.9188L33.0781 18.4125L33.3031 17.5688C33.7531 15.9 33.9312 14.5875 33.9312 12.9844C33.9312 11.175 33.725 10.125 33.1437 8.93438C32.4781 7.54688 31.1375 6.44063 29.6656 6.05625C29.2812 5.9625 29.0375 5.8125 28.7281 5.5125C28.2312 5.03438 27.4531 4.63125 26.5437 4.3875C25.7656 4.17188 23.5344 4.0875 22.5125 4.22813ZM25.025 6.09375C26.2062 6.21563 26.9844 6.49688 27.4812 6.975C27.6969 7.18125 27.8937 7.41563 27.9219 7.49063C27.9406 7.56563 28.1844 7.65 28.4937 7.69688C30.1906 7.96875 31.325 9.00938 31.7937 10.7344C32.2531 12.4313 32.0094 15.3 31.1656 18.1313C30.9031 19.0125 30.8937 19.0875 31.0531 19.1719C31.1375 19.2188 31.3437 19.3781 31.5031 19.5188C31.7656 19.7438 31.7937 19.8094 31.7844 20.3156C31.775 20.9719 31.5406 21.8156 31.2781 22.1531C31.1281 22.3406 30.9875 22.4063 30.6406 22.425L30.2 22.4531L30.1344 23.0438C29.9375 24.8063 28.85 27.1406 28.1 27.3844C28.025 27.4125 27.9969 28.0969 27.9875 29.6719C27.9875 32.2969 28.0531 32.5969 28.7281 33.4875C29.6094 34.65 30.8187 35.3625 34.0906 36.6563C38.7594 38.5125 40.325 39.7781 41.1125 42.3094C41.2156 42.6656 41.2812 42.9938 41.2531 43.0406C41.225 43.0875 34.2125 43.125 24.2375 43.125C7.90625 43.125 7.27812 43.1156 7.27812 42.9563C7.27812 42.2344 8.0375 40.6969 8.7875 39.8906C9.88437 38.7188 11.2437 37.95 14.5437 36.6375C18.2656 35.1563 19.4562 34.3688 20.2719 32.8688C20.4969 32.4656 20.5344 32.25 20.6 31.2281C20.6375 30.5813 20.675 29.475 20.6844 28.7625V27.4875L20.3656 27.3C19.5406 26.8125 18.6687 24.9844 18.425 23.2031L18.3125 22.4156L17.8344 22.3875L17.3562 22.3594L17.075 21.8063C16.8406 21.3188 16.8031 21.1406 16.7937 20.4563C16.7937 19.6219 16.7937 19.6125 17.3937 19.2188L17.6187 19.0688L17.375 18.0469C16.8594 15.9094 16.7937 15.3469 16.7937 13.2656C16.7937 11.0344 16.8687 10.6313 17.5062 9.30938C18.0031 8.26875 18.7812 7.49063 19.85 6.95625C20.9844 6.38438 21.8562 6.1875 24.0594 6.01875C24.1344 6.00938 24.575 6.04688 25.025 6.09375Z" fill="#000"/>
</svg>
