<svg width="48" height="48" viewBox="0 0 48 48" fill="none" xmlns="http://www.w3.org/2000/svg">
<path d="M27.7834 5.14987C27.399 5.16862 25.9834 5.22487 24.6428 5.28112C18.8771 5.5155 13.2428 5.99362 9.50214 6.55612C4.96464 7.24049 2.68652 8.04675 2.15214 9.16237C2.01152 9.453 2.00214 10.8124 2.00214 24.5186C2.00214 41.5717 1.91777 39.8749 2.80839 40.5592C5.08652 42.303 14.7334 43.5311 29.1428 43.9061C34.4396 44.0467 37.2615 44.028 37.9928 43.8592C39.7553 43.4374 41.1896 42.003 41.6115 40.2311C41.7146 39.7717 41.7521 38.9467 41.7521 36.5655V33.4999H43.1678C44.7803 33.4999 45.1084 33.4061 45.3521 32.8905C45.4834 32.628 45.5021 32.0186 45.5021 28.4374C45.5021 23.8342 45.5021 23.8061 44.8928 23.5249C44.4521 23.3092 36.8584 23.2999 35.9678 23.5155C34.0459 23.9655 32.5928 25.4186 32.1428 27.3405C31.5146 29.9936 33.2396 32.7217 35.9584 33.3592C36.3521 33.453 37.0553 33.4999 38.0303 33.4999H39.5021V36.4811C39.5021 40.0436 39.474 40.1936 38.7146 40.9624C37.974 41.6936 37.7115 41.7499 34.9646 41.7499C30.5771 41.7499 23.9209 41.5249 19.5803 41.2249C12.5115 40.7561 6.35214 39.8561 4.66464 39.0592L4.29902 38.8905L4.27089 25.4655L4.25214 12.0405L4.64589 12.1811C6.71777 12.9217 12.0053 13.6905 18.0334 14.1405C22.5803 14.4686 30.1928 14.7499 34.9646 14.7499C37.5615 14.7499 37.9178 14.8155 38.5928 15.4061C39.2959 16.0249 39.4365 16.4467 39.5021 18.0124L39.549 19.3624L39.8959 19.6811C40.299 20.0374 40.7209 20.103 41.1896 19.8592C41.7053 19.5967 41.7803 19.2874 41.724 17.7592C41.6959 16.6811 41.6396 16.2686 41.4803 15.828C40.9365 14.328 39.7271 13.1842 38.1803 12.7436L37.6553 12.5842L37.6084 11.2999C37.5709 10.2217 37.524 9.89362 37.3084 9.2655C36.9709 8.28112 36.5396 7.59674 35.8084 6.86549C35.1053 6.16237 34.4396 5.74049 33.4834 5.39362C32.8178 5.14987 32.7334 5.1405 30.6428 5.13112C29.4615 5.13112 28.1678 5.1405 27.7834 5.14987ZM43.2521 28.4374V31.2592L39.8115 31.2311C36.5115 31.203 36.3428 31.1936 35.9303 31.0061C33.624 29.9374 33.774 26.6186 36.174 25.7936C36.5865 25.653 37.0646 25.6342 39.9521 25.6249H43.2521V28.4374Z" fill="#000" />
</svg>
